<svg xmlns="http://www.w3.org/2000/svg" viewBox="0 0 934.89194 512.97861">
  <defs>
    <style>
      .cls-1 {
        fill: #fff;
      }

      .cls-2 {
        fill: #fedb00;
      }
    </style>
  </defs>
  <title>reviewus-light</title>
  <g id="Layer_2" data-name="Layer 2">
    <g id="Layer_1-2" data-name="Layer 1">
      <g>
        <g>
          <path class="cls-1" d="M424.145,137.44948a8.97925,8.97925,0,0,1,6.59979-2.63448,9.12263,9.12263,0,0,1,9.35292,9.32112V275.60373a8.87144,8.87144,0,0,1-2.69677,6.48261,9.65632,9.65632,0,0,1-13.2425,0,8.86387,8.86387,0,0,1-2.67552-6.48261V144.13612a9.107,9.107,0,0,1,2.66208-6.68664"/>
          <path class="cls-1" d="M463.68216,137.44948a9.646,9.646,0,0,1,13.249,0,9.12127,9.12127,0,0,1,2.69806,6.68664V275.60373a8.863,8.863,0,0,1-2.68967,6.48261,9.30715,9.30715,0,0,1-15.92859-6.48261V144.13612a9.1249,9.1249,0,0,1,2.67119-6.68664"/>
          <path class="cls-1" d="M914.73983,269.5289a.92668.92668,0,0,1,.27946.6787.85091.85091,0,0,1-.27946.64923.93767.93767,0,0,1-.68578.2455H909.3833v12.92851a.91971.91971,0,0,1-.24984.71686.95582.95582,0,0,1-.70833.29217.82723.82723,0,0,1-.65342-.29217.93125.93125,0,0,1-.22568-.71686V271.10233h-4.692a.88789.88789,0,0,1-.944-.91308.90954.90954,0,0,1,.26819-.666.88345.88345,0,0,1,.67582-.25966h11.2a.91927.91927,0,0,1,.68578.2653"/>
          <path class="cls-1" d="M934.4602,269.51473a1.578,1.578,0,0,1,.43174,1.08807v13.42674a1.00738,1.00738,0,0,1-1.02305,1.01178,1.01793,1.01793,0,0,1-.73518-.29218.96351.96351,0,0,1-.3091-.7196V271.25608l-5.19138,12.84109a1.57845,1.57845,0,0,1-2.31283.68448,1.56472,1.56472,0,0,1-.59692-.68448l-5.22822-12.84109v12.77346a.93033.93033,0,0,1-.26947.7196.97616.97616,0,0,1-.71687.29218,1.05865,1.05865,0,0,1-.75356-.29218,1.02036,1.02036,0,0,1-.32873-.7196V270.6028a1.6037,1.6037,0,0,1,.4699-1.08807,1.54361,1.54361,0,0,1,1.08229-.48117h.74084a1.41584,1.41584,0,0,1,.82263.31327,1.74519,1.74519,0,0,1,.55042.69576l5.10537,12.7395,5.10395-12.72115a1.72431,1.72431,0,0,1,.55039-.71541,1.39865,1.39865,0,0,1,.82263-.312h.74084a1.4637,1.4637,0,0,1,1.04431.48117"/>
          <path class="cls-1" d="M309.97966,146.19565q3.07867-4.71922,7.6948-4.72017,4.61541,0,7.07823,2.66772a8.80553,8.80553,0,0,1,2.46238,6.15734,11.53717,11.53717,0,0,1-1.68426,6.1546l-49.29153,68.7395v52.32817a9.03624,9.03624,0,0,1-9.16869,9.233,9.2855,9.2855,0,0,1-6.6732-2.667,8.75548,8.75548,0,0,1-2.77349-6.566V225.19464l-49.0284-68.7395a11.48344,11.48344,0,0,1-1.63471-6.1546,8.81534,8.81534,0,0,1,2.46586-6.15734q2.46375-2.66272,7.08241-2.66772,4.61542,0,7.69625,4.72017l42.88581,62.37957Z"/>
          <path class="cls-1" d="M339.3224,262.18552c5.88078,5.47372,14.08782,8.18161,24.62388,8.18161q15.79868,0,26.471-5.34671a14.76893,14.76893,0,0,1,6.35993-1.85564,7.55333,7.55333,0,0,1,5.13141,2.255,6.8143,6.8143,0,0,1,2.46253,5.12794,8.06647,8.06647,0,0,1-4.41325,7.69335q-4.41341,2.36211-7.90013,4.00187a54.66683,54.66683,0,0,1-7.59177,2.87161A77.13108,77.13108,0,0,1,363.1264,287.783q-25.24125,0-39.19359-14.15761-13.95851-14.16049-13.95387-40.21953,0-22.57222,11.69609-37.554,13.12965-16.82106,37.3472-16.82461,22.97624,0,36.32054,15.59551,12.51279,14.57016,12.5151,36.11319a9.22508,9.22508,0,0,1-2.56468,6.621,9.12487,9.12487,0,0,1-6.87348,2.7206H328.85686c1.09356,9.19195,4.58189,16.63835,10.46554,22.10789m19.69983-67.35811c-12.17871,0-21.06937,5.35177-26.67719,16.15732a32.2665,32.2665,0,0,0-3.48818,13.69478H389.39c-.5475-9.652-4.10287-17.3185-10.66871-22.92906a29.38788,29.38788,0,0,0-19.6991-6.923"/>
          <path class="cls-1" d="M509.137,271.44667a7.915,7.915,0,0,1,2.43407,5.79249v.882a8.22655,8.22655,0,0,1-8.2465,8.1491H501.857a8.19515,8.19515,0,0,1-8.20993-8.1491v-.882a8.24384,8.24384,0,0,1,8.20993-8.2056h1.46752a7.93165,7.93165,0,0,1,5.81243,2.41311"/>
          <path class="cls-1" d="M571.9187,270.3417a44.99751,44.99751,0,0,0,21.95833-5.74741,13.89948,13.89948,0,0,1,6.56453-2.05042,6.62559,6.62559,0,0,1,5.12939,2.667,9.54362,9.54362,0,0,1,2.25778,6.36137q0,3.69141-4.71887,6.77189A59.08446,59.08446,0,0,1,570.2762,287.783q-22.77314,0-38.371-14.36366-16.41684-15.18507-16.41539-40.012,0-24.82855,16.41539-40.01492,15.5934-14.36273,38.371-14.36655,12.31467,0,20.21134,3.18069a74.80646,74.80646,0,0,1,12.62232,6.25892q4.72032,3.07975,4.71887,6.77189a9.5319,9.5319,0,0,1-2.25778,6.36137q-2.25851,2.67011-4.50992,2.667a14.71785,14.71785,0,0,1-7.184-2.05115,45.03289,45.03289,0,0,0-21.95833-5.74523q-18.05716,0-27.90757,10.15791-9.84661,10.15567-9.85087,26.78007,0,16.618,9.85087,26.77719,9.85113,10.15589,27.90757,10.15719"/>
          <path class="cls-1" d="M662.20731,179.02585q23.80183,0,38.16911,14.9811,14.35537,15.18918,14.35947,39.40037,0,24.21041-14.35947,39.39676-14.36574,14.98176-38.16911,14.97894-24.01141,0-38.1678-14.97894-14.36359-14.97741-14.36511-39.39676,0-24.42216,14.36511-39.40037,14.15855-14.97546,38.1678-14.9811M639.329,262.23623a30.32514,30.32514,0,0,0,10.874,6.46151,35.52388,35.52388,0,0,0,23.804,0,32.25612,32.25612,0,0,0,10.97706-6.35992q11.07858-10.04991,11.08284-29.13655,0-18.47007-11.08284-28.72892-9.233-8.41151-22.77676-8.41223-22.15932,0-30.78064,19.90155a50.42583,50.42583,0,0,0,0,34.678,33.026,33.026,0,0,0,7.9023,11.59653"/>
          <path class="cls-1" d="M744.145,197.90652c8.27046-12.58635,19.9375-18.87923,34.85156-18.87923a33.34642,33.34642,0,0,1,20.0943,6.56729,32.15632,32.15632,0,0,1,11.279,14.56827q5.73833-9.02641,11.2776-12.72318a44.22056,44.22056,0,0,1,26.47246-8.41238c11.0772,0,19.81771,4.24174,26.11406,12.72188,5.4652,7.25379,8.25921,16.14374,8.25921,26.67633v59.09731a8.80938,8.80938,0,0,1-2.82506,6.566,9.32743,9.32743,0,0,1-6.69432,2.667,9.187,9.187,0,0,1-9.32314-9.233V222.11843c0-8.61771-1.50711-15.082-4.58622-19.39017-3.07751-4.30878-8.45673-6.465-16.256-6.465-12.03811,0-21.90457,6.56728-29.48938,19.69838v61.56114a8.78886,8.78886,0,0,1-2.81369,6.566,9.326,9.326,0,0,1-6.69155,2.667,9.20129,9.20129,0,0,1-9.33873-9.233V222.11843c0-8.61771-1.49716-15.082-4.5748-19.39017-3.08042-4.30878-8.46109-6.465-16.26022-6.465-12.03824,0-21.91033,6.56728-29.495,19.69838v61.56114a8.78,8.78,0,0,1-2.804,6.566,9.3084,9.3084,0,0,1-6.683,2.667,9.0657,9.0657,0,0,1-6.62941-2.667,8.96834,8.96834,0,0,1-2.73042-6.566V189.49139a9.31109,9.31109,0,0,1,2.722-6.66756,8.81089,8.81089,0,0,1,6.59416-2.772,9.53642,9.53642,0,0,1,9.53067,9.43961Z"/>
          <path class="cls-2" d="M15.94707,125.39937H159.40193a15.94779,15.94779,0,0,1,15.94779,15.94779V284.80145a15.94693,15.94693,0,0,1-15.94693,15.94693H15.94765A15.94765,15.94765,0,0,1,0,284.80073V141.34645A15.94707,15.94707,0,0,1,15.94707,125.39937Z"/>
          <path d="M72.78876,180.221c-1.3879.10519-1.91849.60126-3.12418,2.44837-8.04333,12.27668-30.68816,46.99417-34.30841,52.7657-3.0057,4.802-4.16067,8.65716-3.19615,12.47566.81988,3.56866,3.58557,6.05923,7.93047,7.00337a3.13378,3.13378,0,0,0,2.88707-1.12751c5.86531-7.2418,38.74565-51.36162,44.903-59.63152a1.911,1.911,0,0,0,.1666-2.54562c-1.14168-2.32063-5.42647-7.03011-8.83084-9.24425a11.9932,11.9932,0,0,0-6.03814-2.1653c-.13611,0-.26674.00911-.38942.0211"/>
          <path d="M147.96507,251.98874c-6.8531-14.68532-40.082-83.23149-47.2758-99.02611-3.71475-8.15344-7.60448-18.372-11.061-27.56326H48.2932c.604,14.01933.79171,20.99164-1.45133,27.59-3.95318,11.59306-16.7788,23.742-25.65184,33.14492-3.05786,3.22793,9.3769,11.94578,22.54181,1.63759,4.77378-3.74856,12.3183-11.13789,18.444-15.93277a13.008,13.008,0,0,1,10.00257-2.67061c5.05887.73376,8.53231,3.06914,12.07627,7.31882,3.59207,4.30242,6.98719,10.13595,11.617,17.70518,8.734,14.2839,18.54976,30.44468,29.06964,47.1495,5.34873,8.50052,12.48057,12.05936,22.24689,11.82513.94747-.02688,1.07809-.55892.77682-1.17838"/>
          <path d="M15.85878,269.07026a15.94152,15.94152,0,0,0,15.62528,15.8793s112.05431.03526,112.09246.03526a16.03414,16.03414,0,0,0,15.91167-15.91456Z"/>
        </g>
        <polygon class="cls-2" points="655.28 347.117 674.264 385.583 716.714 391.751 685.997 421.693 693.248 463.972 655.28 444.011 617.311 463.972 624.562 421.693 593.845 391.751 636.295 385.583 655.28 347.117"/>
        <polygon class="cls-2" points="457.331 347.117 476.315 385.583 518.765 391.751 488.048 421.693 495.3 463.972 457.331 444.011 419.363 463.972 426.614 421.693 395.897 391.751 438.347 385.583 457.331 347.117"/>
        <polygon class="cls-2" points="259.383 347.117 278.367 385.583 320.817 391.751 290.1 421.693 297.351 463.972 259.383 444.011 221.414 463.972 228.666 421.693 197.948 391.751 240.398 385.583 259.383 347.117"/>
        <polygon class="cls-2" points="61.434 347.117 80.419 385.583 122.869 391.751 92.151 421.693 99.403 463.972 61.434 444.011 23.466 463.972 30.717 421.693 0 391.751 42.45 385.583 61.434 347.117"/>
        <polygon class="cls-1" points="899.532 512.979 887.201 482.614 862.62 503.044 864.59 404.233 934.892 473.697 903.027 476.188 915.356 506.553 899.532 512.979"/>
        <polygon class="cls-2" points="860.256 404.147 860.457 394.056 867.637 401.15 886.202 419.494 914.662 391.752 872.212 385.583 853.228 347.117 834.244 385.583 791.794 391.752 822.511 421.693 815.259 463.972 853.228 444.011 859.397 447.254 860.256 404.147"/>
        <g>
          <path class="cls-1" d="M4.59093,37.69336V66.00781H.05773V1.02148H15.52648q12.09082,0,17.86914,4.46778Q39.173,9.95557,39.17394,18.93555A17.57486,17.57486,0,0,1,35.72863,29.959q-3.44385,4.48976-10.46778,6.44532L42.90734,66.00781H37.48449L20.72765,37.69336Zm0-3.91211H16.99328q8.22363,0,12.75683-3.667Q34.2838,26.44775,34.28429,19.291q0-7.42383-4.44531-10.80176Q25.39465,5.11279,15.34874,5.11133H4.59093Z"/>
          <path class="cls-1" d="M72.55578,66.89648q-10.53516,0-16.42383-6.48925Q50.24034,53.918,50.24132,42.22656q0-11.55615,5.68946-18.51367,5.68944-6.95508,15.33593-6.95508,8.53419,0,13.46875,5.95508,4.9336,5.959,4.9336,16.17969v3.55664H54.86437q.08789,9.958,4.64551,15.20215,4.55566,5.2456,13.0459,5.24511a40.42225,40.42225,0,0,0,7.26757-.57812A44.08648,44.08648,0,0,0,87.757,59.8291v4.001a35.31369,35.31369,0,0,1-7.55567,2.42187A41.94526,41.94526,0,0,1,72.55578,66.89648ZM71.26671,20.669a14.4733,14.4733,0,0,0-11.20117,4.60058q-4.2246,4.59962-4.93359,13.26758H85.00109q0-8.39941-3.64453-13.13477A12.02084,12.02084,0,0,0,71.26671,20.669Z"/>
          <path class="cls-1" d="M113.58312,66.00781,94.91417,17.69043h4.53418l12.49024,32.84863A101.43911,101.43911,0,0,1,115.673,61.5625h.26563q1.82226-6.04395,3.73437-11.1123L132.1632,17.69043h4.53418l-18.669,48.31738Z"/>
          <path class="cls-1" d="M144.16515,4.2666q0-4.26708,2.79981-4.2666a2.48838,2.48838,0,0,1,2.15527,1.11133,5.455,5.455,0,0,1,.77832,3.15527,5.58959,5.58959,0,0,1-.77832,3.15625A2.45965,2.45965,0,0,1,146.965,8.57813Q144.16418,8.57813,144.16515,4.2666Zm5.02149,61.74121h-4.4004V17.69043h4.4004Z"/>
          <path class="cls-1" d="M184.881,66.89648q-10.53369,0-16.4248-6.48925-5.88867-6.48927-5.88868-18.18067,0-11.55615,5.68946-18.51367,5.68945-6.95508,15.335-6.95508,8.53417,0,13.46777,5.95508,4.93506,5.959,4.93457,16.17969v3.55664H167.19054q.0879,9.958,4.64453,15.20215,4.55566,5.2456,13.0459,5.24511a40.41476,40.41476,0,0,0,7.26758-.57812,44.14037,44.14037,0,0,0,7.93457-2.48926v4.001a35.33785,35.33785,0,0,1-7.55664,2.42187A41.94529,41.94529,0,0,1,184.881,66.89648ZM183.59191,20.669a14.47542,14.47542,0,0,0-11.20215,4.60058q-4.22167,4.59962-4.93359,13.26758h29.87109q0-8.39941-3.64453-13.13477A12.02513,12.02513,0,0,0,183.59191,20.669Z"/>
          <path class="cls-1" d="M253.95617,66.00781l-10.5791-32.31445q-1.02247-3.29-2.62208-9.64648h-.26757l-.9336,3.28906-2,6.44531L226.798,66.00781h-4.35644L208.6173,17.69043h4.71191l7.73438,28.00391q2.71,10.40185,3.55566,15.29h.2666q2.62207-10.4004,3.82227-13.82325l9.957-29.4707h4.001l9.46777,29.38184q3.20068,10.44579,3.91211,13.82421h.26563q.356-2.88867,3.55664-15.46875l7.3789-27.7373h4.44531L258.57921,66.00781Z"/>
          <path class="cls-1" d="M308.63,17.69043v31.293q0,7.29052,3.06641,10.60156,3.06738,3.312,9.5127,3.31152,8.62353,0,12.69043-4.35644,4.06639-4.355,4.0664-14.17871V17.69043h4.35742V66.00781H338.589l-.80078-6.668h-.26563q-4.71387,7.55861-16.75781,7.55664-16.49121,0-16.49121-17.64648V17.69043Z"/>
          <path class="cls-1" d="M388.462,53.42773a11.48613,11.48613,0,0,1-4.9336,9.98047q-4.93359,3.48927-14.002,3.48828-9.69141,0-15.37988-2.97851V59.16211a33.93039,33.93039,0,0,0,15.37988,3.64551q7.15576,0,10.86719-2.37793a7.2319,7.2319,0,0,0,3.71289-6.334,7.7225,7.7225,0,0,0-2.957-6.13476q-2.95607-2.48877-9.71192-4.88867a55.5971,55.5971,0,0,1-10.17871-4.51172,14.06834,14.06834,0,0,1-4.42383-4.26758,10.72244,10.72244,0,0,1-1.48828-5.80078,9.90719,9.90719,0,0,1,4.55664-8.5791q4.55566-3.15528,12.73438-3.15528a38.10534,38.10534,0,0,1,14.8457,2.9336l-1.64453,4a34.8104,34.8104,0,0,0-13.20117-2.9336q-5.91212,0-9.37891,1.95508a6.00416,6.00416,0,0,0-3.4668,5.42383,7.50468,7.50468,0,0,0,2.68946,6.04492q2.688,2.26758,10.51172,5.06738a51.72752,51.72752,0,0,1,9.51171,4.24512,13.83417,13.83417,0,0,1,4.46778,4.28906A10.48453,10.48453,0,0,1,388.462,53.42773Z"/>
          <path class="cls-1" d="M464.51574,41.7832q0,11.82423-5.7334,18.46875-5.73486,6.64453-15.82422,6.64453a20.48371,20.48371,0,0,1-11.20117-3.0664,19.62012,19.62012,0,0,1-7.42383-8.80078A32.01671,32.01671,0,0,1,421.755,41.7832q0-11.82421,5.73438-18.42578,5.73341-6.60059,15.73437-6.59961,9.958,0,15.625,6.68946Q464.51476,30.13721,464.51574,41.7832Zm-38.1377,0q0,9.95655,4.37793,15.53516,4.37842,5.57813,12.37988,5.57812,8.001,0,12.37891-5.57812,4.377-5.57812,4.37891-15.53516,0-10.002-4.42383-15.51367-4.42236-5.51074-12.42383-5.51172-8.001,0-12.334,5.48926Q426.37756,31.73731,426.378,41.7832Z"/>
          <path class="cls-1" d="M511.589,66.00781V34.66992q0-7.28905-3.06738-10.60058-3.06739-3.312-9.51172-3.31153-8.669,0-12.69043,4.37891-4.02393,4.377-4.02344,14.20117V66.00781h-4.40039V17.69043h3.7334l.84472,6.623h.26661q4.71093-7.55566,16.75781-7.55567,16.44581,0,16.44629,17.64649V66.00781Z"/>
        </g>
      </g>
    </g>
  </g>
</svg>
